<svg id="bold" height="24" viewBox="0 0 24 24" width="24" xmlns="http://www.w3.org/2000/svg"><g><path d="m17.329 23.97-5.329-1.938-5.329 1.938c-.153.056-.325.033-.458-.06-.133-.094-.213-.247-.213-.41v-1.446c0-.52.264-.996.705-1.272l3.295-2.059v-6.484l-9.314 3.726c-.328.129-.686-.111-.686-.465v-.958c0-.815.398-1.581 1.066-2.048l8.934-6.254v-4.24c0-1.103.897-2 2-2s2 .897 2 2v4.24l8.934 6.253c.668.468 1.066 1.234 1.066 2.049v.958c0 .355-.361.596-.686.464l-9.314-3.726v6.484l3.295 2.06c.441.277.705.752.705 1.272v1.446c0 .163-.08.316-.213.41-.134.093-.306.116-.458.06z"/></g></svg>